<svg xmlns="http://www.w3.org/2000/svg" viewBox="0 0 310 400" width="310" height="400">
  <rect width="310" height="400" fill="white"/>
  <path fill="black" d="
    M 155 4
    L 163 22 L 178 14 L 171 35 L 191 24 L 180 48
    L 200 38 L 215 28 L 203 56 L 224 44 L 210 70
    L 232 58 L 248 46 L 233 78 L 252 66 L 236 95
    L 256 82 L 268 68 L 252 104 L 270 92 L 252 122
    L 269 110 L 279 94 L 262 132 L 278 120 L 257 152
    L 273 141 L 280 125 L 263 162 L 275 153 L 252 182
    L 265 172 L 269 158 L 248 192 L 258 185 L 232 214
    L 242 208 L 244 194 L 218 228 L 226 222 L 196 250
    L 200 245 L 198 232 L 173 268
    L 185 268 L 188 310 L 172 310 L 172 390 L 138 390 L 138 310 L 122 310 L 125 268
    L 137 268
    L 112 232 L 110 245 L 114 250 L 84 222 L 92 228
    L 66 194 L 68 208 L 78 214 L 52 185 L 62 192
    L 41 158 L 45 172 L 58 182 L 35 153 L 47 162
    L 30 125 L 37 141 L 53 152 L 32 120 L 48 132
    L 31 94 L 41 110 L 58 122 L 40 92 L 58 104
    L 42 68 L 54 82 L 74 95 L 58 66 L 77 78
    L 62 46 L 78 58 L 100 70 L 86 44 L 107 56
    L 95 28 L 110 38 L 130 48 L 119 24 L 139 35
    L 132 14 L 147 22
    Z
  "/>
</svg>
